<?xml version="1.0" encoding="UTF-8"?>
<svg width="32" height="32" viewBox="0 0 32 32" fill="none" xmlns="http://www.w3.org/2000/svg">
  <!-- Notepad outline -->
  <path d="M4 4C4 2.89543 4.89543 2 6 2H26C27.1046 2 28 2.89543 28 4V28C28 29.1046 27.1046 30 26 30H6C4.89543 30 4 29.1046 4 28V4Z" fill="#646CFF"/>
  
  <!-- Top binding holes -->
  <circle cx="10" cy="7" r="1.75" fill="white"/>
  <circle cx="16" cy="7" r="1.75" fill="white"/>
  <circle cx="22" cy="7" r="1.75" fill="white"/>
  
  <!-- Microphone icon -->
  <path d="M16 11C14.3431 11 13 12.3431 13 14V19C13 20.6569 14.3431 22 16 22C17.6569 22 19 20.6569 19 19V14C19 12.3431 17.6569 11 16 11Z" fill="white"/>
  <path d="M11 18V19C11 22.3137 13.6863 25 17 25H15C11.6863 25 9 22.3137 9 19V18H11Z" fill="white"/>
  <path d="M21 18V19C21 22.3137 18.3137 25 15 25H17C20.3137 25 23 22.3137 23 19V18H21Z" fill="white"/>
</svg> 